<svg width="126" height="32" viewBox="0 0 126 32" fill="none" xmlns="http://www.w3.org/2000/svg">
<path d="M29.84 5L32.045 6.085C30.5517 8.51167 28.7783 10.67 26.725 12.56C24.695 14.45 21.9883 16.3283 18.605 18.195C19.2583 21.5783 20.0633 24.285 21.02 26.315C21.9767 28.3683 23.225 29.5117 24.765 29.745V31.355C24.5783 31.3783 24.3333 31.39 24.03 31.39C22.4667 31.39 20.95 30.305 19.48 28.135C18.0333 25.965 16.7267 22.7567 15.56 18.51C14.5567 21.66 13.0283 24.1567 10.975 26C8.92167 27.82 6.78667 28.73 4.57 28.73C3.42667 28.73 2.48167 28.415 1.735 27.785C1.01167 27.1783 0.65 26.3383 0.65 25.265C0.65 24.1683 1.14 23.0367 2.12 21.87C3.1 20.7033 4.44167 19.7233 6.145 18.93L6.95 20.19C4.85 21.6833 3.8 23.0833 3.8 24.39C3.8 25.02 4.01 25.5333 4.43 25.93C4.85 26.3033 5.39833 26.49 6.075 26.49C7.66167 26.49 9.02667 25.825 10.17 24.495C11.3367 23.1417 12.375 20.785 13.285 17.425C14.4283 13.2017 15.595 10.4367 16.785 9.13C17.3217 8.52333 18.1033 7.85833 19.13 7.135C17.52 7.18167 15.875 7.46167 14.195 7.975C12.515 8.465 11.045 9.21167 9.785 10.215C8.525 11.195 7.895 12.2917 7.895 13.505C7.895 15.0683 8.60667 16.3167 10.03 17.25L9.33 18.335C8.02333 17.705 6.99667 16.8883 6.25 15.885C5.50333 14.8817 5.13 13.8433 5.13 12.77C5.13 11.3 5.935 9.91167 7.545 8.605C9.155 7.29833 11.1267 6.28333 13.46 5.56C15.8167 4.83667 18.1267 4.475 20.39 4.475C21.79 4.475 22.49 4.77833 22.49 5.385C22.49 5.78167 22.0817 6.28333 21.265 6.89C19.7717 8.01 18.6167 9.46833 17.8 11.265C17.0067 13.0617 16.3533 15.1617 15.84 17.565C18.5 16.585 21.0433 14.9633 23.47 12.7C25.92 10.4133 28.0433 7.84667 29.84 5ZM39.2156 15.605C39.8223 16.6083 40.1256 17.7167 40.1256 18.93C40.1256 20.82 39.4723 22.5117 38.1656 24.005C36.859 25.475 35.319 26.21 33.5456 26.21C32.1923 26.21 31.1306 25.825 30.3606 25.055C29.614 24.2617 29.2406 23.1767 29.2406 21.8C29.2406 19.5833 30.104 17.6 31.8306 15.85C33.5573 14.0767 35.494 13.19 37.6406 13.19C38.0373 13.19 38.3173 13.2017 38.4806 13.225L38.5856 14.38C36.719 14.38 35.1673 14.9167 33.9306 15.99C32.694 17.0633 32.0756 18.44 32.0756 20.12C32.0756 21.1233 32.3206 21.94 32.8106 22.57C33.3006 23.1767 34.0123 23.48 34.9456 23.48C35.9023 23.48 36.6606 23.06 37.2206 22.22C37.7806 21.38 38.0606 20.4 38.0606 19.28C38.0606 18.1367 37.839 17.0983 37.3956 16.165L39.2156 15.605ZM50.6275 13.61C51.2109 13.61 51.6892 13.8083 52.0625 14.205C52.4359 14.6017 52.6225 15.115 52.6225 15.745C52.6225 17.005 51.8992 18.335 50.4525 19.735L49.6125 19.07C49.9392 18.3467 50.1025 17.8217 50.1025 17.495C50.1025 16.865 49.7525 16.55 49.0525 16.55C48.3525 16.55 47.6875 16.9933 47.0575 17.88C46.4275 18.7667 45.6809 20.1433 44.8175 22.01C43.9775 23.8533 43.3359 25.16 42.8925 25.93L40.8975 25.055C42.1809 22.1383 42.9159 20.4233 43.1025 19.91C43.7325 18.09 44.0475 15.78 44.0475 12.98L46.0075 12.455C45.9375 13.9717 45.8325 15.15 45.6925 15.99C45.5525 16.8067 45.2142 18.1483 44.6775 20.015C47.0342 15.745 49.0175 13.61 50.6275 13.61ZM65.3439 23.41L65.3089 24.88C64.7723 24.9033 64.0373 24.9267 63.1039 24.95C62.1706 24.9733 61.5173 24.9967 61.1439 25.02C60.7939 25.02 60.3039 25.0433 59.6739 25.09C58.6006 25.16 57.6089 25.3 56.6989 25.51C55.5556 25.7667 54.9373 25.895 54.8439 25.895C54.4006 25.895 53.9456 25.6267 53.4789 25.09C53.0356 24.5533 52.8139 24.0283 52.8139 23.515C52.8139 22.535 56.3139 19.5833 63.3139 14.66C63.0106 14.6367 62.3106 14.625 61.2139 14.625C60.1406 14.625 58.2623 14.8583 55.5789 15.325L55.3689 14.135C56.9556 13.1783 59.9189 12.7 64.2589 12.7C65.1689 12.7 65.8106 12.77 66.1839 12.91C66.5806 13.05 66.7789 13.365 66.7789 13.855C66.7789 14.3917 66.4756 14.8817 65.8689 15.325C65.7523 15.4183 65.5539 15.5467 65.2739 15.71C65.0173 15.8733 64.5389 16.2 63.8389 16.69C63.1389 17.18 62.4273 17.6933 61.7039 18.23C61.0039 18.7433 60.1056 19.525 59.0089 20.575C57.9123 21.625 56.8623 22.78 55.8589 24.04C59.0789 23.5267 61.2489 23.27 62.3689 23.27C63.5123 23.27 64.5039 23.3167 65.3439 23.41ZM75.072 11.16C73.7654 11.16 73.112 10.635 73.112 9.585C73.112 9.00167 73.2754 8.51167 73.602 8.115C73.9287 7.71833 74.3487 7.52 74.862 7.52C75.3754 7.52 75.7954 7.67167 76.122 7.975C76.4487 8.27833 76.612 8.675 76.612 9.165C76.612 9.655 76.472 10.11 76.192 10.53C75.912 10.95 75.5387 11.16 75.072 11.16ZM74.617 21.485L75.317 22.08C74.757 23.1533 74.0104 24.075 73.077 24.845C72.167 25.5917 71.3387 25.965 70.592 25.965C69.2854 25.965 68.632 25.055 68.632 23.235C68.632 20.9717 69.5654 18.02 71.432 14.38C71.852 13.5867 72.097 13.12 72.167 12.98L73.672 13.89C73.182 14.7767 72.5754 16.1883 71.852 18.125C71.152 20.0617 70.802 21.31 70.802 21.87C70.802 22.4067 70.9187 22.7917 71.152 23.025C71.3854 23.2583 71.6654 23.375 71.992 23.375C72.622 23.375 73.497 22.745 74.617 21.485ZM91.9623 21.765L92.6973 22.325C92.1839 23.3517 91.4723 24.215 90.5623 24.915C89.6756 25.615 88.8706 25.965 88.1473 25.965C87.4239 25.965 86.8523 25.755 86.4323 25.335C86.0123 24.915 85.8023 24.39 85.8023 23.76C85.8023 23.13 86.1989 22.0333 86.9923 20.47C87.8089 18.8833 88.2173 17.7167 88.2173 16.97C88.2173 16.6433 88.0773 16.3517 87.7973 16.095C87.5406 15.815 87.2256 15.675 86.8523 15.675C85.6623 15.675 84.4606 16.585 83.2473 18.405C82.0339 20.2017 80.6806 22.8033 79.1873 26.21L77.0873 25.475C77.5306 22.7683 78.1606 20.1317 78.9773 17.565C79.8173 14.975 80.5873 13.12 81.2873 12L82.7223 12.455C82.0689 14.1117 81.2406 16.97 80.2373 21.03C83.4573 15.5233 86.4206 12.77 89.1273 12.77C89.7106 12.77 90.1889 12.9683 90.5623 13.365C90.9589 13.7617 91.1573 14.2283 91.1573 14.765C91.1573 15.3017 91.0873 15.7917 90.9473 16.235C90.8073 16.655 90.3639 17.6583 89.6173 19.245C88.8939 20.8083 88.5323 21.7883 88.5323 22.185C88.5323 22.5817 88.6489 22.8967 88.8823 23.13C89.1156 23.34 89.3373 23.445 89.5473 23.445C89.7573 23.445 89.9323 23.41 90.0723 23.34C90.2123 23.27 90.3639 23.165 90.5273 23.025C90.7139 22.885 90.8773 22.7567 91.0173 22.64C91.1573 22.5233 91.3206 22.3717 91.5073 22.185C91.7173 21.975 91.8689 21.835 91.9623 21.765ZM107.673 22.43L108.548 23.2C107.194 25.4167 105.759 26.525 104.243 26.525C103.309 26.525 102.353 25.8367 101.373 24.46C100.393 23.0833 99.9026 21.9517 99.9026 21.065C99.9026 20.505 100.743 19.945 102.423 19.385C103.053 19.175 103.624 18.86 104.138 18.44C104.674 17.9967 104.943 17.5417 104.943 17.075C104.943 16.6083 104.814 16.2583 104.558 16.025C104.301 15.7683 103.974 15.64 103.578 15.64C101.011 15.8733 98.3276 19.3267 95.5276 26L93.3926 25.265C93.3926 24.2617 94.746 20.2017 97.4526 13.085C100.183 5.96833 102.119 1.66333 103.263 0.169999L104.978 0.799999C101.828 6.28333 99.191 12.6533 97.0676 19.91C98.8876 17.18 100.451 15.36 101.758 14.45C103.064 13.54 104.313 13.085 105.503 13.085C106.226 13.085 106.798 13.3067 107.218 13.75C107.661 14.1933 107.883 14.765 107.883 15.465C107.883 16.1417 107.708 16.76 107.358 17.32C107.031 17.88 106.553 18.37 105.923 18.79C105.013 19.3967 103.893 19.9917 102.563 20.575C102.773 21.6717 103.134 22.5 103.648 23.06C104.161 23.62 104.744 23.9 105.398 23.9C105.748 23.9 106.506 23.41 107.673 22.43ZM124.407 22.465L125.212 23.06C124.885 23.76 124.279 24.425 123.392 25.055C122.529 25.685 121.735 26 121.012 26C119.635 26 118.947 25.2767 118.947 23.83C118.947 23.1533 119.122 22.3483 119.472 21.415L118.177 22.745C116.917 24.0283 115.82 24.8917 114.887 25.335C113.977 25.7783 113.079 26 112.192 26C111.305 26 110.629 25.755 110.162 25.265C109.719 24.7517 109.497 24.0517 109.497 23.165C109.497 21.5317 110.127 19.9217 111.387 18.335C112.647 16.725 114.257 15.4183 116.217 14.415C118.177 13.4117 120.137 12.8983 122.097 12.875L122.167 14.03L120.697 14.345C118.574 14.8117 116.695 15.745 115.062 17.145C113.452 18.545 112.647 19.945 112.647 21.345C112.647 22.7217 113.207 23.41 114.327 23.41C115.377 23.41 116.672 22.675 118.212 21.205C119.752 19.735 121.035 18.0083 122.062 16.025L123.532 16.9C122.085 19.8167 121.362 21.6717 121.362 22.465C121.362 22.7917 121.467 23.0717 121.677 23.305C121.91 23.515 122.132 23.62 122.342 23.62C122.575 23.62 122.727 23.6083 122.797 23.585C122.867 23.5617 122.937 23.5383 123.007 23.515C123.077 23.4683 123.159 23.41 123.252 23.34C123.369 23.27 123.462 23.2 123.532 23.13C123.625 23.06 123.765 22.955 123.952 22.815C124.139 22.675 124.29 22.5583 124.407 22.465Z" fill="#78B244"/>
</svg>
