<svg width="21" height="21" viewBox="0 0 21 21" fill="none" xmlns="http://www.w3.org/2000/svg">
<path d="M10.4999 0.083313C4.74992 0.083313 0.083252 4.74998 0.083252 10.5C0.083252 16.25 4.74992 20.9166 10.4999 20.9166C16.2499 20.9166 20.9166 16.25 20.9166 10.5C20.9166 4.74998 16.2499 0.083313 10.4999 0.083313ZM15.3333 7.16665C15.177 8.81248 14.4999 12.8125 14.1562 14.6562C14.0103 15.4375 13.7187 15.6979 13.4478 15.7291C12.8437 15.7812 12.3853 15.3333 11.802 14.9479C10.8853 14.3437 10.3645 13.9687 9.47908 13.3854C8.44783 12.7083 9.1145 12.3333 9.70825 11.7291C9.8645 11.5729 12.5312 9.14581 12.5833 8.92706C12.5905 8.89393 12.5895 8.85953 12.5804 8.82686C12.5714 8.79418 12.5545 8.76422 12.5312 8.73956C12.4687 8.68748 12.3853 8.70831 12.3124 8.71873C12.2187 8.73956 10.7603 9.70831 7.91659 11.625C7.49992 11.9062 7.12492 12.0521 6.79158 12.0416C6.41658 12.0312 5.70825 11.8333 5.177 11.6562C4.52075 11.4479 4.01033 11.3333 4.052 10.9687C4.07283 10.7812 4.33325 10.5937 4.82284 10.3958C7.8645 9.0729 9.88533 8.1979 10.8958 7.78123C13.7916 6.5729 14.3853 6.36456 14.7812 6.36456C14.8645 6.36456 15.0624 6.3854 15.1874 6.48956C15.2916 6.5729 15.3228 6.68748 15.3333 6.77081C15.3228 6.83331 15.3437 7.02081 15.3333 7.16665Z" fill="white"/>
</svg>
