<svg width="19" height="19" viewBox="0 0 19 19" fill="none" xmlns="http://www.w3.org/2000/svg">
<path d="M1.4375 1.4375C0.125 2.7625 0.125 4.88125 0.125 9.125V9.875C0.125 14.1125 0.125 16.2312 1.4375 17.5625C2.7625 18.875 4.88125 18.875 9.125 18.875H9.875C14.1125 18.875 16.2312 18.875 17.5625 17.5625C18.875 16.2375 18.875 14.1187 18.875 9.875V9.125C18.875 4.8875 18.875 2.76875 17.5625 1.4375C16.2375 0.125 14.1187 0.125 9.875 0.125H9.125C4.8875 0.125 2.76875 0.125 1.4375 1.4375ZM3.2875 5.83125H5.4375C5.50625 9.40625 7.08125 10.9187 8.33125 11.2312V5.83125H10.35V8.9125C11.5812 8.78125 12.8813 7.375 13.3187 5.825H15.3312C15.167 6.62731 14.8392 7.38716 14.3682 8.0571C13.8972 8.72704 13.2931 9.2927 12.5938 9.71875C13.3744 10.1072 14.0638 10.6567 14.6165 11.3311C15.1692 12.0055 15.5726 12.7895 15.8 13.6312H13.5813C13.1062 12.15 11.9187 11 10.35 10.8438V13.6312H10.1C5.825 13.6312 3.3875 10.7062 3.2875 5.83125Z" fill="white"/>
</svg>
