<svg width="21" height="21" viewBox="0 0 21 21" fill="none" xmlns="http://www.w3.org/2000/svg">
<path d="M10.5012 0.083313C16.2543 0.083313 20.9178 4.74685 20.9178 10.5C20.9178 16.2531 16.2543 20.9166 10.5012 20.9166C8.66027 20.9198 6.85176 20.4326 5.26157 19.5052L0.0886554 20.9166L1.49699 15.7416C0.56882 14.1509 0.0812626 12.3417 0.0844886 10.5C0.0844886 4.74685 4.74803 0.083313 10.5012 0.083313ZM6.95116 5.60415L6.74282 5.61248C6.60812 5.62176 6.47652 5.65714 6.35532 5.71665C6.24238 5.78072 6.13924 5.86071 6.04907 5.95415C5.92407 6.07185 5.85324 6.17394 5.7772 6.2729C5.39191 6.77384 5.18446 7.38885 5.18761 8.02081C5.1897 8.53123 5.32303 9.0281 5.53136 9.49269C5.95741 10.4323 6.65845 11.4271 7.58345 12.3489C7.80636 12.5708 8.02511 12.7937 8.26053 13.001C9.40994 14.0129 10.7796 14.7427 12.2605 15.1323L12.8522 15.2229C13.0449 15.2333 13.2376 15.2187 13.4314 15.2094C13.7347 15.1934 14.0308 15.1112 14.2991 14.9687C14.4354 14.8983 14.5685 14.8218 14.698 14.7396C14.698 14.7396 14.7421 14.7097 14.8282 14.6458C14.9689 14.5416 15.0553 14.4677 15.172 14.3458C15.2595 14.2555 15.3324 14.1507 15.3907 14.0312C15.472 13.8614 15.5532 13.5375 15.5866 13.2677C15.6116 13.0614 15.6043 12.9489 15.6012 12.8791C15.597 12.7677 15.5043 12.6521 15.4032 12.6031L14.797 12.3312C14.797 12.3312 13.8907 11.9364 13.3366 11.6844C13.2786 11.6591 13.2164 11.6446 13.1532 11.6416C13.082 11.6342 13.0099 11.6421 12.942 11.665C12.874 11.6878 12.8118 11.725 12.7595 11.7739C12.7543 11.7719 12.6845 11.8312 11.9314 12.7437C11.8881 12.8018 11.8286 12.8457 11.7603 12.8698C11.6921 12.8939 11.6181 12.8972 11.548 12.8791C11.4801 12.8611 11.4136 12.8381 11.3491 12.8104C11.2199 12.7562 11.1751 12.7354 11.0866 12.6979C10.4885 12.4374 9.93495 12.0849 9.44595 11.6531C9.3147 11.5385 9.19282 11.4135 9.06782 11.2927C8.65804 10.9002 8.3009 10.4562 8.00532 9.97185L7.94386 9.8729C7.90039 9.80602 7.86474 9.73437 7.83761 9.65935C7.79803 9.50623 7.90115 9.38331 7.90115 9.38331C7.90115 9.38331 8.15428 9.10623 8.27199 8.95623C8.38657 8.8104 8.48345 8.66873 8.54595 8.56769C8.66886 8.36977 8.70741 8.16665 8.64282 8.00935C8.35116 7.29685 8.04977 6.58817 7.73866 5.88331C7.6772 5.74373 7.49491 5.64373 7.32928 5.62394C7.27303 5.61699 7.21678 5.61144 7.16053 5.60727C7.02066 5.59925 6.88042 5.60064 6.74074 5.61144L6.95116 5.60415Z" fill="white"/>
</svg>
